<svg xmlns="http://www.w3.org/2000/svg" width="200" height="200" viewBox="0 0 200 200" fill="none">
  <path d="M135.714 14.2857H64.2857C58.0714 14.2857 53.5714 18.7857 53.5714 25V175C53.5714 181.214 58.0714 185.714 64.2857 185.714H135.714C141.929 185.714 146.429 181.214 146.429 175V25C146.429 18.7857 141.929 14.2857 135.714 14.2857Z" fill="#E6E6E6"/>
  <path d="M128.571 30H71.4286C69.0714 30 67.1429 31.9286 67.1429 34.2857V71.4286C67.1429 73.7857 69.0714 75.7143 71.4286 75.7143H128.571C130.929 75.7143 132.857 73.7857 132.857 71.4286V34.2857C132.857 31.9286 130.929 30 128.571 30Z" fill="#6366F1"/>
  <rect x="67.1429" y="85.7143" width="65.7143" height="7.14286" rx="3.57143" fill="#D1D5DB"/>
  <rect x="67.1429" y="100" width="55" height="7.14286" rx="3.57143" fill="#D1D5DB"/>
  <rect x="67.1429" y="114.286" width="65.7143" height="7.14286" rx="3.57143" fill="#D1D5DB"/>
  <rect x="67.1429" y="128.571" width="45" height="7.14286" rx="3.57143" fill="#D1D5DB"/>
  <rect x="67.1429" y="142.857" width="65.7143" height="7.14286" rx="3.57143" fill="#D1D5DB"/>
  <rect x="67.1429" y="157.143" width="35" height="7.14286" rx="3.57143" fill="#D1D5DB"/>
  <circle cx="100" cy="50" r="10" fill="white"/>
  <path d="M94 48C94 46.9 94.9 46 96 46H104C105.1 46 106 46.9 106 48V54H94V48Z" fill="white"/>
  <circle cx="100" cy="42" r="6" fill="white"/>
  <path d="M100 57L96 53H104L100 57Z" fill="white"/>
</svg> 